<?xml version="1.0" standalone="no"?>
<!DOCTYPE svg PUBLIC "-//W3C//DTD SVG 20010904//EN"
 "http://www.w3.org/TR/2001/REC-SVG-20010904/DTD/svg10.dtd">
<svg version="1.0" xmlns="http://www.w3.org/2000/svg"
 width="658.000000pt" height="49.000000pt" viewBox="0 0 658.000000 49.000000"
 preserveAspectRatio="xMidYMid meet">

<g transform="translate(0.000000,49.000000) scale(0.100000,-0.100000)"
fill="#000000" stroke="none">
<path d="M65 401 c5 -15 -26 -218 -50 -328 l-5 -23 154 0 c148 0 155 1 161 21
4 11 5 23 2 25 -2 3 -40 5 -83 5 -111 1 -114 3 -107 47 11 68 15 71 106 74 76
3 82 5 85 25 3 21 -1 22 -80 25 l-83 3 3 35 c6 56 15 60 117 60 91 0 93 0 97
25 l5 25 -164 0 c-157 0 -164 -1 -158 -19z"/>
<path d="M504 405 c3 -8 -8 -88 -24 -177 -16 -90 -30 -166 -30 -170 0 -5 69
-8 154 -8 l154 0 4 25 5 25 -86 0 c-47 0 -92 4 -99 9 -11 6 -8 35 12 152 14
79 26 147 26 151 0 4 -27 8 -61 8 -50 0 -60 -3 -55 -15z"/>
<path d="M937 393 c3 -16 -7 -91 -21 -167 -14 -77 -26 -148 -26 -158 0 -17 9
-18 153 -16 149 3 152 3 155 26 4 24 7 23 -123 26 -59 1 -60 1 -63 32 -2 16 2
42 7 57 10 26 12 27 96 27 84 0 85 0 85 25 0 25 -1 25 -80 25 l-80 0 0 38 c0
56 11 62 117 62 51 0 93 4 93 9 0 5 3 16 6 25 5 14 -12 16 -158 16 l-165 0 4
-27z"/>
<path d="M1375 398 c3 -13 -6 -84 -19 -158 l-26 -134 27 -28 27 -28 162 0
c181 0 166 -7 179 78 l7 42 -56 0 c-52 0 -56 -2 -56 -23 0 -13 -5 -28 -12 -35
-13 -13 -136 -16 -155 -4 -14 9 23 242 41 255 6 4 45 6 86 5 73 -3 75 -4 75
-28 0 -23 4 -25 48 -28 43 -3 48 -1 57 24 9 24 7 31 -17 56 l-27 28 -173 0
-173 0 5 -22z"/>
<path d="M2189 401 c6 -10 7 -21 4 -25 -3 -3 19 -6 50 -6 69 0 67 10 32 -179
-14 -74 -25 -136 -25 -138 0 -1 24 -3 54 -3 l54 0 22 123 c39 216 28 192 87
195 45 3 51 6 56 27 l4 25 -174 0 c-167 0 -173 -1 -164 -19z"/>
<path d="M2638 408 c7 -9 1 -61 -19 -173 -16 -88 -29 -166 -29 -172 0 -9 17
-13 53 -13 l54 0 14 83 c14 81 14 82 44 82 27 0 34 -7 73 -83 l43 -82 49 0
c28 0 50 5 50 10 0 6 -16 41 -35 79 -19 38 -31 71 -28 75 4 3 21 6 39 6 27 0
35 5 38 23 26 123 26 120 -1 150 l-27 27 -164 0 c-130 0 -162 -3 -154 -12z
m252 -65 c0 -68 -6 -73 -81 -73 -66 0 -69 1 -69 24 0 14 4 36 10 50 9 24 14
26 75 26 64 0 65 0 65 -27z"/>
<path d="M3158 405 c5 -10 -3 -74 -20 -168 -15 -84 -27 -160 -28 -169 0 -15 9
-18 53 -18 l54 0 14 83 14 82 84 3 84 3 -6 -54 c-4 -29 -10 -67 -13 -85 l-6
-32 55 0 55 0 16 88 c43 239 43 229 16 257 -23 25 -24 25 -202 25 -158 0 -178
-2 -170 -15z m280 -61 c2 -11 -2 -32 -7 -47 -10 -26 -13 -27 -92 -27 l-82 0 7
42 c4 22 9 45 12 50 3 5 40 8 82 6 69 -3 77 -5 80 -24z"/>
<path d="M3675 401 c5 -15 -28 -231 -50 -328 -5 -22 -2 -23 50 -23 30 0 55 1
56 3 0 1 10 58 23 127 12 69 26 125 30 125 4 0 29 -56 55 -125 l47 -125 64 0
65 0 26 145 c14 80 29 162 33 183 l7 37 -55 0 -55 0 -10 -52 c-6 -29 -16 -84
-22 -123 -6 -38 -15 -74 -19 -78 -4 -5 -29 50 -55 122 l-48 131 -74 0 c-69 0
-74 -1 -68 -19z"/>
<path d="M4194 402 c4 -10 -1 -54 -9 -98 -8 -43 -15 -80 -15 -81 0 -1 62 -4
138 -5 l137 -3 -3 -45 c-2 -25 -8 -49 -13 -55 -6 -5 -70 -11 -144 -13 -74 -2
-135 -7 -135 -12 0 -5 -3 -15 -6 -24 -5 -14 15 -16 190 -16 223 0 195 -13 216
104 10 58 9 61 -17 88 -26 27 -30 28 -130 28 -114 0 -117 2 -105 60 7 32 11
35 46 38 54 5 89 -5 82 -23 -4 -12 5 -15 48 -15 67 0 80 20 39 62 l-27 28
-149 0 c-139 0 -148 -1 -143 -18z"/>
<path d="M4709 407 c8 -10 3 -55 -19 -178 -17 -90 -30 -167 -30 -171 0 -4 24
-8 53 -8 l54 0 14 83 14 82 127 3 127 3 10 52 c17 89 17 94 -8 121 -24 26 -25
26 -189 26 -136 0 -163 -2 -153 -13z m254 -67 c-7 -70 -8 -70 -83 -70 -67 0
-70 1 -70 24 0 14 4 36 10 51 9 25 13 26 77 23 66 -3 68 -4 66 -28z"/>
<path d="M5204 405 c3 -8 -6 -78 -20 -156 l-25 -142 27 -28 28 -29 162 0 162
0 16 88 c43 239 43 229 16 257 -23 25 -24 25 -198 25 -150 0 -173 -2 -168 -15z
m272 -50 c7 -17 -24 -212 -38 -238 -9 -17 -19 -18 -84 -14 -41 2 -77 7 -80 10
-6 5 33 234 42 249 3 4 39 8 80 8 56 0 76 -4 80 -15z"/>
<path d="M5718 405 c5 -10 -1 -64 -14 -138 -13 -67 -26 -144 -29 -170 l-7 -48
53 3 53 3 13 74 c14 83 20 94 54 89 19 -2 33 -21 64 -83 l40 -80 53 -3 c28 -2
52 0 52 3 0 3 -16 37 -35 76 -20 38 -33 74 -30 79 4 6 21 10 40 10 33 0 33 0
44 63 15 86 14 90 -12 115 -22 21 -33 22 -186 22 -142 0 -161 -2 -153 -15z
m250 -61 c2 -11 -2 -32 -7 -47 -10 -25 -14 -27 -76 -27 l-65 0 0 38 c0 53 14
63 85 60 52 -3 60 -6 63 -24z"/>
<path d="M6238 395 c4 -23 9 -25 53 -25 26 0 51 -4 54 -10 3 -5 -5 -74 -20
-153 -14 -79 -25 -147 -25 -150 0 -4 24 -7 53 -7 l54 0 27 152 c15 84 30 156
32 160 3 5 27 8 55 8 46 0 49 2 49 25 l0 25 -169 0 -168 0 5 -25z"/>
<path d="M1847 263 c-4 -3 -7 -15 -7 -25 0 -16 10 -18 100 -18 l100 0 0 25 c0
25 0 25 -93 25 -52 0 -97 -3 -100 -7z"/>
</g>
</svg>
