<svg xmlns="http://www.w3.org/2000/svg" width="214" height="256" viewBox="0 0 214 256" version="1.1"><path d="M 58.750 168.566 C 56.138 169.926, 54 171.271, 54 171.554 C 54 171.838, 54.895 171.591, 55.990 171.005 C 57.670 170.106, 58.682 170.588, 62.490 174.098 C 64.970 176.384, 67 177.950, 67 177.577 C 67 177.204, 68.463 178.269, 70.250 179.945 C 72.037 181.620, 74.007 182.993, 74.628 182.995 C 75.248 182.998, 76.303 183.661, 76.973 184.468 C 77.644 185.275, 78.486 185.850, 78.846 185.746 C 79.206 185.641, 80.714 186.367, 82.198 187.358 C 83.682 188.350, 85.549 189.258, 86.347 189.375 C 87.145 189.492, 88.519 190.186, 89.399 190.916 C 90.280 191.647, 91 191.895, 91 191.467 C 91 191.040, 91.900 191.505, 93 192.500 C 94.100 193.495, 95 194.004, 95 193.629 C 95 193.255, 96.350 193.647, 98 194.500 C 99.650 195.353, 101 195.803, 101 195.500 C 101 195.197, 102.350 195.647, 104 196.500 C 105.650 197.353, 107 197.846, 107 197.595 C 107 197.345, 108.463 197.590, 110.250 198.140 C 112.037 198.690, 114.950 199.309, 116.723 199.515 C 118.495 199.722, 121.420 200.281, 123.223 200.758 C 127.197 201.810, 152.122 201.643, 156.990 200.532 C 158.910 200.094, 161.931 199.595, 163.702 199.423 C 165.474 199.252, 167.895 198.591, 169.083 197.956 C 171.483 196.671, 171.352 197.078, 167.639 202.431 C 166.521 204.042, 166.094 205.060, 166.689 204.692 C 167.284 204.324, 169.960 200.756, 172.636 196.762 C 175.311 192.768, 178.087 189.126, 178.805 188.669 C 179.803 188.035, 179.838 187.510, 178.955 186.446 C 177.969 185.258, 177.372 185.274, 174.899 186.552 C 173.305 187.377, 172 187.799, 172 187.490 C 172 187.182, 171.197 187.359, 170.216 187.884 C 169.235 188.409, 166.606 189.111, 164.373 189.444 C 162.140 189.777, 159.005 190.425, 157.406 190.883 C 153.791 191.919, 125.226 192.006, 122.500 190.990 C 121.400 190.580, 118.700 189.984, 116.500 189.666 C 109.098 188.596, 90.972 181.652, 82.500 176.642 C 76.925 173.345, 72.305 170.041, 70.595 168.130 C 68.126 165.370, 64.643 165.498, 58.750 168.566" stroke="none" fill="#eba13f" fill-rule="evenodd"/><path d="M 53 172.576 C 50.525 173.943, 49.418 174.822, 50.541 174.530 C 52.032 174.141, 53.771 175.210, 56.999 178.499 C 59.429 180.975, 61.928 183, 62.553 183 C 63.178 183, 64.547 183.952, 65.595 185.115 C 66.643 186.278, 68.400 187.647, 69.500 188.158 C 72.479 189.540, 75.585 191.411, 77.393 192.911 C 78.277 193.645, 79 193.895, 79 193.467 C 79 193.040, 79.900 193.505, 81 194.500 C 82.100 195.495, 83 195.945, 83 195.500 C 83 195.055, 83.900 195.505, 85 196.500 C 86.100 197.495, 87 197.960, 87 197.533 C 87 197.105, 87.563 197.201, 88.250 197.745 C 88.938 198.290, 91.975 199.529, 95 200.500 C 98.025 201.471, 101.063 202.710, 101.750 203.255 C 102.438 203.799, 103 203.976, 103 203.647 C 103 203.318, 104.186 203.501, 105.636 204.052 C 107.087 204.603, 109.899 205.289, 111.886 205.575 C 113.874 205.862, 116.175 206.332, 117 206.619 C 121.659 208.242, 145.034 208.906, 155.750 207.720 C 159.187 207.339, 162 207.340, 162 207.722 C 162 208.103, 160.537 210.036, 158.750 212.015 C 156.963 213.995, 158.200 212.860, 161.500 209.493 C 164.800 206.126, 168.338 201.894, 169.363 200.090 L 171.226 196.809 169.075 197.960 C 167.892 198.593, 165.474 199.252, 163.702 199.423 C 161.931 199.595, 158.910 200.094, 156.990 200.532 C 152.122 201.643, 127.197 201.810, 123.223 200.758 C 121.420 200.281, 118.495 199.722, 116.723 199.515 C 114.950 199.309, 112.037 198.690, 110.250 198.140 C 108.463 197.590, 107 197.345, 107 197.595 C 107 197.846, 105.650 197.353, 104 196.500 C 102.350 195.647, 101 195.197, 101 195.500 C 101 195.803, 99.650 195.353, 98 194.500 C 96.350 193.647, 95 193.255, 95 193.629 C 95 194.004, 94.100 193.495, 93 192.500 C 91.900 191.505, 91 191.040, 91 191.467 C 91 191.895, 90.280 191.647, 89.399 190.916 C 88.519 190.186, 87.145 189.492, 86.347 189.375 C 85.549 189.258, 83.682 188.350, 82.198 187.358 C 80.714 186.367, 79.206 185.641, 78.846 185.746 C 78.486 185.850, 77.644 185.275, 76.973 184.468 C 76.303 183.661, 75.248 182.998, 74.628 182.995 C 74.007 182.993, 72.037 181.620, 70.250 179.945 C 68.463 178.269, 67 177.204, 67 177.577 C 67 177.950, 64.985 176.397, 62.522 174.127 C 60.060 171.857, 57.922 170.020, 57.772 170.045 C 57.623 170.070, 55.475 171.209, 53 172.576" stroke="none" fill="#ea9f3e" fill-rule="evenodd"/><path d="M 87.530 152.951 C 87.174 153.528, 86.160 154, 85.277 154 C 83.828 154, 64.604 164.168, 62.719 165.932 C 62.289 166.334, 63.335 166.458, 65.043 166.207 C 67.469 165.851, 68.843 166.395, 71.324 168.696 C 78.145 175.019, 89.778 181.233, 104 186.149 C 108.675 187.765, 114.300 189.348, 116.500 189.666 C 118.700 189.984, 121.400 190.580, 122.500 190.990 C 125.226 192.006, 153.791 191.919, 157.406 190.883 C 159.005 190.425, 162.140 189.777, 164.373 189.444 C 166.606 189.111, 169.235 188.409, 170.216 187.884 C 171.197 187.359, 172 187.182, 172 187.490 C 172 187.799, 173.283 187.388, 174.851 186.577 C 176.806 185.566, 178.026 185.426, 178.732 186.132 C 179.437 186.837, 180.703 185.485, 182.758 181.831 C 186.112 175.865, 191 163.932, 191 161.709 C 191 160.807, 188.145 159.246, 183.448 157.578 C 173.850 154.171, 171.650 153.574, 175.750 155.488 C 179.332 157.161, 180.272 160.130, 177.021 159.504 C 175.933 159.294, 174.738 159.615, 174.367 160.216 C 173.933 160.917, 174.160 161.019, 175 160.500 C 175.827 159.989, 176.067 160.083, 175.651 160.756 C 175.288 161.342, 174.206 161.693, 173.246 161.536 C 172.286 161.378, 170.635 161.981, 169.578 162.875 C 168.041 164.175, 167.829 164.200, 168.520 163 C 169.265 161.707, 169.151 161.689, 167.692 162.872 C 166.761 163.627, 166 163.895, 166 163.467 C 166 163.040, 165.023 163.547, 163.828 164.595 C 162.471 165.786, 161.980 165.937, 162.520 165 C 163.265 163.707, 163.151 163.689, 161.692 164.872 C 160.761 165.627, 160 165.910, 160 165.500 C 160 165.090, 159.404 165.250, 158.676 165.854 C 157.710 166.656, 157.035 166.635, 156.176 165.776 C 155.275 164.875, 155 165.025, 155 166.422 C 155 167.878, 154.716 168.009, 153.589 167.074 C 152.813 166.430, 151.950 166.271, 151.672 166.721 C 150.802 168.129, 126.491 167.652, 124.732 166.192 C 123.634 165.281, 122.979 165.225, 122.500 166 C 122.013 166.787, 121.424 166.766, 120.411 165.926 C 119.635 165.282, 119 165.090, 119 165.500 C 119 165.910, 118.256 165.627, 117.346 164.872 C 116.437 164.118, 115.537 163.613, 115.346 163.750 C 115.156 163.887, 114.775 163.944, 114.500 163.875 C 114.225 163.806, 113.169 163.694, 112.154 163.625 C 111.138 163.556, 109.563 162.882, 108.654 162.128 C 107.744 161.373, 107 161.105, 107 161.533 C 107 161.960, 106.023 161.453, 104.828 160.405 C 103.471 159.214, 102.980 159.063, 103.520 160 C 104.237 161.244, 104.122 161.288, 102.850 160.259 C 102.006 159.576, 100.982 159.351, 100.575 159.759 C 100.167 160.166, 99.983 159.983, 100.167 159.350 C 100.350 158.718, 100.050 158.123, 99.500 158.029 C 98.950 157.935, 97.713 157.145, 96.750 156.274 C 95.787 155.403, 95 155.063, 95 155.519 C 95 155.975, 93.802 155.258, 92.339 153.924 C 90.875 152.591, 90.061 152.175, 90.531 153 C 91.251 154.266, 91.134 154.298, 89.781 153.201 C 88.703 152.328, 87.966 152.246, 87.530 152.951 M 176.564 190.707 C 176.022 192.132, 176.136 192.247, 177.124 191.267 C 177.808 190.588, 178.115 189.781, 177.807 189.474 C 177.499 189.166, 176.940 189.721, 176.564 190.707" stroke="none" fill="#f1ac43" fill-rule="evenodd"/><path d="M 126.701 130.427 L 120.953 133.685 150.127 144.093 C 166.172 149.817, 179.795 154.661, 180.400 154.858 C 181.255 155.137, 140.955 131.827, 133.974 128.005 C 132.949 127.444, 130.562 128.239, 126.701 130.427 M 17.650 200.073 C 17.293 203.494, 17 212.911, 17 220.999 C 17 234.657, 17.163 235.946, 19.285 239.102 C 23.080 244.747, 25.144 245.035, 57.500 244.445 C 73.450 244.154, 89.415 243.414, 92.977 242.802 L 99.455 241.688 87.977 237.883 C 63.643 229.817, 42.057 216.944, 24.900 200.267 L 18.300 193.852 17.650 200.073" stroke="none" fill="#d37030" fill-rule="evenodd"/><path d="M 126.759 129.356 C 123.602 131.167, 120.677 133.028, 120.259 133.493 C 119.842 133.958, 122.434 132.723, 126.020 130.749 L 132.539 127.160 154.693 139.818 C 168.886 147.928, 176.425 152.774, 175.673 153.304 C 175.012 153.770, 175.536 153.838, 176.875 153.458 C 178.478 153.005, 179.030 153.142, 178.573 153.881 C 178.149 154.568, 178.475 154.755, 179.448 154.382 C 180.302 154.054, 181 154.240, 181 154.795 C 181 155.691, 186.982 158.394, 187.551 157.755 C 187.763 157.517, 134.606 126.757, 133.162 126.282 C 132.798 126.162, 129.917 127.546, 126.759 129.356 M 23.500 189.278 L 17.500 192.500 17.368 197.500 L 17.235 202.500 17.868 198.200 L 18.500 193.899 23.500 199.029 C 39.079 215.013, 63.215 229.584, 88 237.969 C 94.597 240.201, 98.434 241.923, 97 242.009 C 95.625 242.091, 95.026 242.373, 95.670 242.636 C 97.941 243.563, 114.362 238.926, 122.785 234.980 C 127.477 232.781, 131.091 230.758, 130.817 230.484 C 130.543 230.210, 128.335 229.749, 125.910 229.460 C 122.068 229.002, 116.833 228.192, 105.634 226.322 C 104.058 226.059, 97.533 224.040, 91.134 221.835 C 71.555 215.091, 55.134 205.654, 40.522 192.750 C 36.318 189.037, 32.118 186.013, 31.189 186.028 C 30.260 186.044, 26.800 187.506, 23.500 189.278 M 90.750 243.662 C 91.438 243.940, 92.563 243.940, 93.250 243.662 C 93.938 243.385, 93.375 243.158, 92 243.158 C 90.625 243.158, 90.063 243.385, 90.750 243.662 M 60.206 244.741 C 63.895 244.932, 70.195 244.934, 74.206 244.743 C 78.218 244.553, 75.200 244.396, 67.500 244.395 C 59.800 244.393, 56.518 244.549, 60.206 244.741" stroke="none" fill="#d57632" fill-rule="evenodd"/><path d="M 50 174.713 C 46.454 176.026, 45.875 177.252, 48.223 178.476 C 49.476 179.129, 50.376 180.223, 50.225 180.906 C 50.074 181.590, 50.340 181.908, 50.817 181.613 C 51.293 181.319, 53.176 182.618, 55 184.500 C 56.824 186.382, 58.630 187.729, 59.013 187.492 C 59.396 187.255, 60.753 188.173, 62.029 189.531 C 63.305 190.889, 64.875 192, 65.519 192 C 66.163 192, 67.495 192.889, 68.479 193.976 C 69.462 195.063, 70.626 195.731, 71.065 195.460 C 71.503 195.189, 72.135 195.410, 72.470 195.951 C 73.141 197.037, 85.742 203.257, 86.326 202.792 C 86.528 202.631, 87.482 203.155, 88.447 203.956 C 89.412 204.757, 90.867 205.510, 91.679 205.629 C 92.491 205.748, 93.909 206.174, 94.828 206.574 C 95.748 206.974, 97.098 207.424, 97.828 207.574 C 98.559 207.724, 99.909 208.173, 100.828 208.573 C 101.748 208.973, 103.448 209.385, 104.606 209.488 C 105.765 209.591, 107.565 210.041, 108.606 210.488 C 109.648 210.935, 111.400 211.385, 112.500 211.487 C 113.600 211.590, 116.300 212.046, 118.500 212.500 C 123.418 213.515, 129.080 213.888, 139.500 213.882 C 152.488 213.874, 155.968 213.415, 158.745 211.341 C 163.478 207.808, 162.785 206.944, 155.831 207.712 C 145.034 208.905, 121.674 208.247, 117 206.619 C 116.175 206.332, 113.874 205.862, 111.886 205.575 C 109.899 205.289, 107.087 204.603, 105.636 204.052 C 104.186 203.501, 103 203.318, 103 203.647 C 103 203.976, 102.438 203.799, 101.750 203.255 C 101.063 202.710, 98.025 201.471, 95 200.500 C 91.975 199.529, 88.938 198.290, 88.250 197.745 C 87.563 197.201, 87 197.105, 87 197.533 C 87 197.960, 86.100 197.495, 85 196.500 C 83.900 195.505, 83 195.055, 83 195.500 C 83 195.945, 82.100 195.495, 81 194.500 C 79.900 193.505, 79 193.040, 79 193.467 C 79 193.895, 78.277 193.645, 77.393 192.911 C 75.585 191.411, 72.479 189.540, 69.500 188.158 C 68.400 187.647, 66.643 186.278, 65.595 185.115 C 64.547 183.952, 63.178 183, 62.553 183 C 61.928 183, 59.429 180.975, 57 178.500 C 54.571 176.025, 52.340 174.036, 52.042 174.079 C 51.744 174.122, 50.825 174.408, 50 174.713" stroke="none" fill="#e6963c" fill-rule="evenodd"/><path d="M 25.813 7.683 C 26.534 7.972, 27.397 7.936, 27.729 7.604 C 28.061 7.272, 27.471 7.036, 26.417 7.079 C 25.252 7.127, 25.015 7.364, 25.813 7.683 M 39.152 7.671 L 45.803 8.087 44.338 11.024 C 43.533 12.639, 42.424 14.238, 41.875 14.577 C 41.326 14.917, 40.448 16.163, 39.923 17.347 C 39.399 18.531, 38.084 20.850, 37 22.500 C 35.916 24.150, 34.560 26.625, 33.985 28 C 33.411 29.375, 32.655 31.175, 32.307 32 C 31.958 32.825, 31.595 33.725, 31.500 34 C 31.405 34.275, 31.032 35.175, 30.671 36 C 28.721 40.459, 25.038 52.567, 24.460 56.420 C 23.976 59.646, 23.413 60.712, 22.397 60.322 C 21.629 60.027, 21 60.014, 21 60.292 C 21 61.021, 46.554 75, 47.886 75 C 48.499 75, 49 73.679, 49 72.065 C 49 66.320, 52.945 50.756, 55.986 44.500 C 56.521 43.400, 57.425 41.375, 57.994 40 C 58.564 38.625, 59.916 36.150, 61 34.500 C 62.084 32.850, 63.379 30.600, 63.879 29.500 C 64.379 28.400, 65.961 26.409, 67.394 25.076 C 68.827 23.742, 70 22.123, 70 21.478 C 70 20.833, 72.722 17.708, 76.049 14.535 C 79.376 11.361, 81.856 8.523, 81.560 8.227 C 81.264 7.931, 70.104 7.591, 56.761 7.472 C 43.417 7.352, 35.493 7.442, 39.152 7.671 M 17.328 52.500 C 17.333 56.350, 17.513 57.802, 17.730 55.728 C 17.946 53.653, 17.943 50.503, 17.722 48.728 C 17.501 46.952, 17.324 48.650, 17.328 52.500 M 17.221 96.724 L 17.442 112.500 17.748 97.750 C 17.916 89.638, 18.436 83, 18.904 83 C 20.634 83, 22.350 86.227, 22.526 89.810 C 22.626 91.840, 23.024 95.075, 23.412 97 C 23.799 98.925, 24.243 101.175, 24.397 102 C 24.552 102.825, 25.002 105.075, 25.397 107 C 25.793 108.925, 26.235 111.175, 26.381 112 C 26.527 112.825, 27.401 115.242, 28.323 117.372 C 29.245 119.502, 30 121.582, 30 121.994 C 30 123.492, 39.159 140.887, 40.560 142.050 C 41.352 142.707, 42 143.723, 42 144.308 C 42 144.893, 42.924 146.354, 44.052 147.556 C 45.181 148.757, 46.172 150.637, 46.255 151.733 C 46.413 153.831, 48.402 152.846, 65.809 142.049 L 71.119 138.755 68.920 136.415 C 67.711 135.128, 66.222 133.234, 65.611 132.207 C 63.316 128.348, 60.081 123.457, 59.038 122.270 C 58.444 121.593, 57.955 120.810, 57.952 120.530 C 57.941 119.669, 56.798 116.705, 54.663 112 C 53.539 109.525, 52.456 106.421, 52.256 105.101 C 52.056 103.782, 50.696 101.757, 49.236 100.601 C 46.293 98.274, 25.053 85.113, 20.130 82.567 L 17 80.949 17.221 96.724 M 183 154.366 C 183 155.153, 190.240 159.094, 190.750 158.584 C 191.786 157.547, 190.011 155.059, 188.616 155.594 C 187.813 155.902, 186.221 155.654, 185.078 155.042 C 183.935 154.430, 183 154.126, 183 154.366" stroke="none" fill="#3391ce" fill-rule="evenodd"/><path d="M 71.269 7.693 C 72.242 7.947, 73.592 7.930, 74.269 7.656 C 74.946 7.382, 74.150 7.175, 72.500 7.195 C 70.850 7.215, 70.296 7.439, 71.269 7.693 M 78.750 7.723 C 80.537 7.945, 82 8.291, 82 8.493 C 82 8.694, 79.300 11.434, 76 14.581 C 72.700 17.729, 70 20.833, 70 21.478 C 70 22.123, 68.827 23.742, 67.394 25.076 C 65.961 26.409, 64.379 28.400, 63.879 29.500 C 63.379 30.600, 62.084 32.850, 61 34.500 C 59.916 36.150, 58.564 38.625, 57.994 40 C 57.425 41.375, 56.521 43.400, 55.986 44.500 C 52.945 50.756, 49 66.320, 49 72.065 C 49 73.737, 48.462 75.008, 47.750 75.018 C 46.370 75.037, 57.270 81.581, 66.221 86.107 C 69.368 87.698, 72.068 89, 72.221 89 C 72.375 89, 72.443 84.163, 72.373 78.250 C 72.259 68.688, 72.567 66.616, 75.160 59.500 C 78.944 49.111, 80.623 45.558, 82.471 44.024 C 83.300 43.336, 83.775 42.446, 83.528 42.045 C 83.280 41.645, 84.635 39.807, 86.539 37.962 C 88.443 36.117, 90 33.946, 90 33.137 C 90 32.328, 90.312 31.979, 90.694 32.360 C 91.075 32.742, 94 30.468, 97.194 27.308 C 100.387 24.148, 103 21.956, 103 22.436 C 103 22.917, 103.900 22.495, 105 21.500 C 106.100 20.505, 107 20.055, 107 20.500 C 107 20.945, 107.900 20.495, 109 19.500 C 110.100 18.505, 111 18.040, 111 18.467 C 111 18.895, 111.720 18.647, 112.601 17.916 C 113.481 17.186, 114.873 16.489, 115.693 16.369 C 118.509 15.955, 118.075 15.247, 114.009 13.620 C 107.514 11.022, 91.878 7.832, 87.345 8.180 C 85.060 8.356, 83.400 8.162, 83.654 7.750 C 83.909 7.338, 82.179 7.072, 79.809 7.160 C 76.128 7.297, 75.973 7.379, 78.750 7.723 M 49.698 100.780 C 50.907 101.856, 52.059 103.808, 52.258 105.118 C 52.457 106.428, 53.539 109.525, 54.663 112 C 56.464 115.969, 57.861 119.464, 58.259 121 C 58.330 121.275, 58.759 121.950, 59.211 122.500 C 61.204 124.920, 65.026 130.670, 65.860 132.500 C 66.361 133.600, 67.712 135.348, 68.862 136.384 C 70.012 137.420, 70.709 138.663, 70.410 139.146 C 70.111 139.629, 74.385 137.295, 79.908 133.959 C 85.430 130.623, 90.174 127.527, 90.450 127.080 C 90.986 126.213, 88.222 123.385, 85.084 121.589 C 84.038 120.990, 76.728 116.512, 68.841 111.638 C 60.953 106.763, 52.925 101.886, 51 100.799 C 47.564 98.859, 47.540 98.859, 49.698 100.780 M 186.500 127.934 C 182.100 132.277, 178.308 135.639, 178.074 135.406 C 177.840 135.173, 176.566 135.998, 175.244 137.241 C 173.921 138.483, 172.645 139.378, 172.409 139.230 C 172.173 139.081, 170.638 139.653, 169 140.500 C 167.362 141.347, 165.829 141.919, 165.594 141.770 C 165.359 141.622, 164.876 141.790, 164.521 142.145 C 164.166 142.500, 167.616 145.034, 172.188 147.775 C 183.744 154.703, 186.957 156.231, 188.629 155.589 C 189.507 155.252, 190.377 155.845, 190.840 157.096 C 192.532 161.670, 196.664 129.752, 195.220 123.269 L 194.500 120.038 186.500 127.934" stroke="none" fill="#3eaae0" fill-rule="evenodd"/><path d="M 149 30.378 C 149 30.585, 149.787 31.373, 150.750 32.128 C 152.336 33.371, 152.371 33.336, 151.128 31.750 C 149.821 30.084, 149 29.555, 149 30.378 M 155 35.500 C 156.292 36.875, 157.574 38, 157.849 38 C 158.124 38, 157.292 36.875, 156 35.500 C 154.708 34.125, 153.426 33, 153.151 33 C 152.876 33, 153.708 34.125, 155 35.500 M 162 42.500 C 163.292 43.875, 164.574 45, 164.849 45 C 165.124 45, 164.292 43.875, 163 42.500 C 161.708 41.125, 160.426 40, 160.151 40 C 159.876 40, 160.708 41.125, 162 42.500 M 131.500 43.323 C 129.850 43.825, 127.719 44.632, 126.764 45.118 C 125.809 45.603, 124.191 46, 123.169 46 C 122.146 46, 120.505 46.889, 119.521 47.976 C 118.538 49.063, 117.332 49.705, 116.842 49.402 C 116.351 49.099, 116.074 49.290, 116.225 49.826 C 116.376 50.362, 116.146 50.829, 115.714 50.864 C 114.610 50.955, 112 53.679, 112 54.741 C 112 55.228, 110.671 56.899, 109.047 58.455 C 107.423 60.011, 106.146 61.557, 106.209 61.892 C 106.272 62.226, 105.800 63.767, 105.161 65.315 C 104.523 66.863, 104 68.974, 104 70.006 C 104 71.038, 103.645 72.101, 103.212 72.369 C 102.243 72.968, 102.411 84.867, 103.421 87.172 C 103.824 88.091, 104.277 89.441, 104.428 90.172 C 104.579 90.902, 105.167 92.625, 105.734 94 C 106.301 95.375, 106.560 96.849, 106.308 97.275 C 106.057 97.701, 106.290 97.926, 106.826 97.775 C 107.362 97.624, 107.860 97.950, 107.934 98.500 C 108.131 99.973, 117.173 109.033, 119.500 110.088 C 120.600 110.587, 122.175 111.447, 123 111.998 C 128.378 115.594, 145.817 117.027, 151.250 114.319 C 152.762 113.565, 154 113.255, 154 113.629 C 154 114.004, 154.900 113.495, 156 112.500 C 157.100 111.505, 158 111.069, 158 111.532 C 158 111.995, 159.269 111.159, 160.819 109.673 C 162.370 108.187, 163.982 107.316, 164.403 107.736 C 164.823 108.156, 165.017 107.825, 164.833 107 C 164.650 106.175, 165.063 105.613, 165.750 105.750 C 166.438 105.888, 166.888 105.438, 166.750 104.750 C 166.613 104.063, 167.175 103.650, 168 103.833 C 168.825 104.017, 169.156 103.823, 168.736 103.403 C 168.316 102.982, 169.216 101.300, 170.736 99.665 C 172.256 98.029, 172.825 97.058, 172 97.507 C 171.175 97.955, 171.625 97.052, 173 95.500 C 174.375 93.948, 174.926 93.008, 174.225 93.413 C 173.523 93.818, 173.870 92.511, 175 90.500 C 176.127 88.493, 176.519 87.179, 175.870 87.580 C 175.058 88.082, 174.960 87.875, 175.553 86.914 C 178.036 82.897, 176.443 70.827, 172.331 62.500 C 167.500 52.718, 160.357 47.177, 148.469 43.992 C 140.627 41.890, 136.720 41.736, 131.500 43.323 M 166.622 47 C 167.039 47.825, 169.441 51.204, 171.960 54.509 C 174.479 57.814, 177.580 62.202, 178.851 64.259 C 180.123 66.317, 181.367 68, 181.617 68 C 182.918 68, 173.943 54.465, 169.017 49 C 167.282 47.075, 166.205 46.175, 166.622 47 M 132.558 58.905 C 132.175 59.525, 131.517 59.819, 131.095 59.558 C 130.673 59.298, 128.717 60.603, 126.748 62.460 C 124.780 64.317, 122.834 65.535, 122.424 65.168 C 122.015 64.801, 121.972 65.012, 122.329 65.637 C 122.686 66.262, 122.313 67.325, 121.500 68 C 120.687 68.675, 120.237 69.575, 120.500 70 C 120.763 70.425, 120.400 71.253, 119.694 71.839 C 117.725 73.473, 118.290 82.819, 120.671 88 C 122.553 92.093, 129 99.497, 129 97.565 C 129 97.119, 129.727 97.358, 130.615 98.096 C 133.603 100.575, 143.314 100.655, 149 98.247 C 152.331 96.836, 158.861 89.981, 159.249 87.489 C 159.419 86.395, 159.895 84.960, 160.308 84.299 C 161.661 82.131, 161.270 74.823, 159.663 72.250 C 159.233 71.563, 159.246 70.986, 159.691 70.970 C 160.136 70.953, 159.713 70.481, 158.750 69.920 C 157.787 69.359, 157 68.478, 157 67.962 C 157 66.064, 153.381 62.805, 149 60.756 C 143.812 58.329, 133.623 57.183, 132.558 58.905 M 183.695 72.487 C 184.610 74.406, 185.536 75.797, 185.753 75.580 C 186.210 75.123, 183.175 69, 182.490 69 C 182.239 69, 182.781 70.569, 183.695 72.487 M 186.071 77.500 C 186.071 78.050, 186.714 79.625, 187.500 81 C 188.286 82.375, 188.929 83.050, 188.929 82.500 C 188.929 81.950, 188.286 80.375, 187.500 79 C 186.714 77.625, 186.071 76.950, 186.071 77.500 M 94 103.430 C 94 103.705, 94.900 104.411, 96 105 C 97.100 105.589, 98 105.845, 98 105.570 C 98 105.295, 97.100 104.589, 96 104 C 94.900 103.411, 94 103.155, 94 103.430 M 101 107.430 C 101 107.705, 101.900 108.411, 103 109 C 104.100 109.589, 105 109.845, 105 109.570 C 105 109.295, 104.100 108.589, 103 108 C 101.900 107.411, 101 107.155, 101 107.430 M 117.016 117.078 C 130.206 124.725, 131 125.157, 131 124.677 C 131 123.825, 108.865 111, 107.394 111 C 106.920 111, 111.250 113.735, 117.016 117.078" stroke="none" fill="#49c1f0" fill-rule="evenodd"/><path d="M 128 18.393 C 128 18.609, 128.698 19.054, 129.552 19.382 C 130.442 19.723, 130.843 19.555, 130.493 18.989 C 129.906 18.038, 128 17.583, 128 18.393 M 135.518 22.660 C 137.065 24.208, 137.060 24.387, 135.453 25.286 C 134.504 25.817, 132.102 26.355, 130.114 26.482 C 128.126 26.609, 125.748 27.037, 124.828 27.433 C 123.909 27.830, 122.559 28.245, 121.828 28.355 C 121.098 28.466, 119.825 28.981, 119 29.500 C 118.175 30.019, 116.833 30.544, 116.018 30.667 C 115.203 30.790, 114.377 31.368, 114.183 31.952 C 113.988 32.535, 113.478 32.795, 113.048 32.530 C 112.619 32.264, 111.462 32.937, 110.479 34.024 C 109.495 35.111, 108.182 36, 107.561 36 C 106.251 36, 97.469 45.022, 94.246 49.678 C 90.517 55.066, 88 59.977, 88 61.864 C 88 62.855, 87.687 63.980, 87.304 64.362 C 86.922 64.745, 86.513 65.607, 86.396 66.279 C 86.279 66.951, 85.915 68.939, 85.587 70.698 C 84.494 76.551, 84.963 87.671, 86.526 93 C 86.742 93.736, 88.253 97.396, 88.656 98.157 C 88.847 98.518, 87.990 98.589, 86.751 98.314 C 85.028 97.932, 85.204 98.205, 87.500 99.477 C 89.150 100.391, 93.828 103.020, 97.896 105.319 C 101.964 107.619, 108.039 110.987, 111.396 112.804 C 114.753 114.622, 121.156 118.334, 125.624 121.054 C 130.092 123.774, 134.005 126, 134.320 126 C 134.635 126, 137.667 127.626, 141.057 129.613 C 146.237 132.649, 147.803 133.120, 150.861 132.561 C 155.057 131.795, 155.884 131.570, 158.172 130.574 C 159.091 130.174, 160.441 129.747, 161.172 129.627 C 161.902 129.506, 164.300 128.256, 166.500 126.849 C 168.700 125.442, 170.823 124.338, 171.218 124.395 C 172.324 124.556, 183.963 112.750, 183.476 111.962 C 183.240 111.580, 183.937 110.462, 185.024 109.479 C 186.111 108.495, 187 107.140, 187 106.467 C 187 105.795, 187.661 104.697, 188.468 104.027 C 189.275 103.356, 189.880 102.514, 189.812 102.154 C 189.743 101.794, 190.163 100.375, 190.744 99 C 191.884 96.300, 192.021 96.471, 193.945 103 L 194.977 106.500 194.408 102.500 C 192.893 91.845, 184.961 73.202, 177.100 61.821 C 164.953 44.234, 158.800 37.757, 144.481 27.483 C 135.758 21.225, 132.131 19.273, 135.518 22.660 M 131.500 43.323 C 129.850 43.825, 127.719 44.632, 126.764 45.118 C 125.809 45.603, 124.191 46, 123.169 46 C 122.146 46, 120.505 46.889, 119.521 47.976 C 118.538 49.063, 117.332 49.705, 116.842 49.402 C 116.351 49.099, 116.074 49.290, 116.225 49.826 C 116.376 50.362, 116.146 50.829, 115.714 50.864 C 114.610 50.955, 112 53.679, 112 54.741 C 112 55.228, 110.671 56.899, 109.047 58.455 C 107.423 60.011, 106.146 61.557, 106.209 61.892 C 106.272 62.226, 105.800 63.767, 105.161 65.315 C 104.523 66.863, 104 68.974, 104 70.006 C 104 71.038, 103.645 72.101, 103.212 72.369 C 102.243 72.968, 102.411 84.867, 103.421 87.172 C 103.824 88.091, 104.277 89.441, 104.428 90.172 C 104.579 90.902, 105.167 92.625, 105.734 94 C 106.301 95.375, 106.560 96.849, 106.308 97.275 C 106.057 97.701, 106.290 97.926, 106.826 97.775 C 107.362 97.624, 107.860 97.950, 107.934 98.500 C 108.131 99.973, 117.173 109.033, 119.500 110.088 C 120.600 110.587, 122.175 111.447, 123 111.998 C 128.378 115.594, 145.817 117.027, 151.250 114.319 C 152.762 113.565, 154 113.255, 154 113.629 C 154 114.004, 154.900 113.495, 156 112.500 C 157.100 111.505, 158 111.069, 158 111.532 C 158 111.995, 159.269 111.159, 160.819 109.673 C 162.370 108.187, 163.982 107.316, 164.403 107.736 C 164.823 108.156, 165.017 107.825, 164.833 107 C 164.650 106.175, 165.063 105.613, 165.750 105.750 C 166.438 105.888, 166.888 105.438, 166.750 104.750 C 166.613 104.063, 167.175 103.650, 168 103.833 C 168.825 104.017, 169.156 103.823, 168.736 103.403 C 168.316 102.982, 169.216 101.300, 170.736 99.665 C 172.256 98.029, 172.825 97.058, 172 97.507 C 171.175 97.955, 171.625 97.052, 173 95.500 C 174.375 93.948, 174.926 93.008, 174.225 93.413 C 173.523 93.818, 173.870 92.511, 175 90.500 C 176.127 88.493, 176.519 87.179, 175.870 87.580 C 175.058 88.082, 174.960 87.875, 175.553 86.914 C 178.036 82.897, 176.443 70.827, 172.331 62.500 C 167.500 52.718, 160.357 47.177, 148.469 43.992 C 140.627 41.890, 136.720 41.736, 131.500 43.323 M 79 94.350 C 79 94.581, 80.180 95.543, 81.623 96.489 C 83.066 97.434, 83.941 97.713, 83.567 97.109 C 82.854 95.955, 79 93.626, 79 94.350 M 196.158 118 C 196.158 119.375, 196.385 119.938, 196.662 119.250 C 196.940 118.563, 196.940 117.438, 196.662 116.750 C 196.385 116.063, 196.158 116.625, 196.158 118" stroke="none" fill="#46bbec" fill-rule="evenodd"/><path d="M 25.035 8.260 C 23.098 8.953, 20.562 10.999, 19.285 12.898 C 17.231 15.953, 17.001 17.467, 17.005 27.898 C 17.008 34.279, 17.300 43.867, 17.653 49.204 C 18.279 58.656, 18.367 58.932, 21.047 59.867 C 23.731 60.802, 23.815 60.716, 24.462 56.404 C 25.038 52.564, 28.724 40.452, 30.671 36 C 31.032 35.175, 31.405 34.275, 31.500 34 C 31.595 33.725, 31.958 32.825, 32.307 32 C 32.655 31.175, 33.411 29.375, 33.985 28 C 34.560 26.625, 35.916 24.150, 37 22.500 C 38.084 20.850, 39.399 18.531, 39.923 17.347 C 40.448 16.163, 41.326 14.917, 41.875 14.577 C 42.424 14.238, 43.542 12.619, 44.360 10.980 L 45.847 8 40.673 7.989 C 37.828 7.983, 33.925 7.763, 32 7.499 C 30.075 7.236, 26.941 7.579, 25.035 8.260 M 17.662 104.750 C 16.836 132.089, 16.805 170, 17.607 170 C 17.941 170, 24.647 166.165, 32.508 161.478 C 47.679 152.433, 48.428 151.508, 43.900 147.410 C 42.855 146.464, 42 145.140, 42 144.467 C 42 143.795, 41.352 142.707, 40.560 142.050 C 39.159 140.887, 30 123.492, 30 121.994 C 30 121.582, 29.245 119.502, 28.323 117.372 C 27.401 115.242, 26.527 112.825, 26.381 112 C 26.235 111.175, 25.793 108.925, 25.397 107 C 25.002 105.075, 24.552 102.825, 24.397 102 C 24.243 101.175, 23.799 98.925, 23.412 97 C 23.024 95.075, 22.626 91.840, 22.526 89.810 C 22.356 86.340, 20.644 83, 19.037 83 C 18.642 83, 18.023 92.787, 17.662 104.750" stroke="none" fill="#318ac9" fill-rule="evenodd"/><path d="M 112 137.482 C 108.975 139.398, 105.825 141.262, 105 141.623 C 100.184 143.730, 84.125 153.542, 85.009 153.836 C 85.591 154.030, 86.648 153.707, 87.357 153.118 C 88.283 152.350, 89.021 152.394, 89.970 153.274 C 91.034 154.260, 91.135 154.206, 90.485 153 C 90.041 152.175, 90.875 152.591, 92.339 153.924 C 93.802 155.258, 95 155.975, 95 155.519 C 95 155.063, 95.788 155.403, 96.750 156.274 C 97.713 157.145, 98.950 158.002, 99.500 158.179 C 100.050 158.355, 100.350 158.950, 100.167 159.500 C 99.983 160.050, 100.167 160.166, 100.575 159.759 C 100.982 159.351, 102.006 159.576, 102.850 160.259 C 104.122 161.288, 104.237 161.244, 103.520 160 C 102.980 159.063, 103.471 159.214, 104.828 160.405 C 106.023 161.453, 107 161.960, 107 161.533 C 107 161.105, 107.744 161.373, 108.654 162.128 C 109.563 162.882, 111.026 163.507, 111.904 163.515 C 112.782 163.524, 114.063 163.888, 114.750 164.324 C 115.438 164.761, 116 164.811, 116 164.437 C 116 164.062, 116.675 164.315, 117.500 165 C 118.325 165.685, 119 165.910, 119 165.500 C 119 165.090, 119.635 165.282, 120.411 165.926 C 121.424 166.766, 122.013 166.787, 122.500 166 C 122.979 165.225, 123.634 165.281, 124.732 166.192 C 126.491 167.652, 150.802 168.129, 151.672 166.721 C 151.950 166.271, 152.813 166.430, 153.589 167.074 C 154.712 168.006, 155 167.889, 155 166.500 C 155 165.166, 155.311 165.014, 156.324 165.854 C 157.290 166.656, 157.965 166.635, 158.824 165.776 C 159.471 165.129, 160 164.970, 160 165.422 C 160 165.875, 160.761 165.627, 161.692 164.872 C 163.151 163.689, 163.265 163.707, 162.520 165 C 161.980 165.937, 162.471 165.786, 163.828 164.595 C 165.023 163.547, 166 163.040, 166 163.467 C 166 163.895, 166.761 163.627, 167.692 162.872 C 169.151 161.689, 169.265 161.707, 168.520 163 C 167.829 164.200, 168.041 164.175, 169.578 162.875 C 170.635 161.981, 172.286 161.378, 173.246 161.536 C 174.206 161.693, 175.288 161.342, 175.651 160.756 C 176.067 160.083, 175.827 159.989, 175 160.500 C 174.160 161.019, 173.933 160.917, 174.367 160.216 C 174.738 159.615, 175.962 159.300, 177.086 159.517 C 178.529 159.795, 179.037 159.448, 178.815 158.335 C 178.444 156.479, 176.045 155.478, 144.500 144.012 C 131.300 139.213, 119.825 134.997, 119 134.642 C 118.121 134.264, 115.223 135.440, 112 137.482" stroke="none" fill="#f9ba48" fill-rule="evenodd"/><path d="M 132.558 58.905 C 132.175 59.525, 131.517 59.819, 131.095 59.558 C 130.673 59.298, 128.717 60.603, 126.748 62.460 C 124.780 64.317, 122.834 65.535, 122.424 65.168 C 122.015 64.801, 121.972 65.012, 122.329 65.637 C 122.686 66.262, 122.313 67.325, 121.500 68 C 120.687 68.675, 120.237 69.575, 120.500 70 C 120.763 70.425, 120.400 71.253, 119.694 71.839 C 117.725 73.473, 118.290 82.819, 120.671 88 C 122.553 92.093, 129 99.497, 129 97.565 C 129 97.119, 129.727 97.358, 130.615 98.096 C 133.603 100.575, 143.314 100.655, 149 98.247 C 152.331 96.836, 158.861 89.981, 159.249 87.489 C 159.419 86.395, 159.895 84.960, 160.308 84.299 C 161.661 82.131, 161.270 74.823, 159.663 72.250 C 159.233 71.563, 159.246 70.986, 159.691 70.970 C 160.136 70.953, 159.713 70.481, 158.750 69.920 C 157.787 69.359, 157 68.478, 157 67.962 C 157 66.064, 153.381 62.805, 149 60.756 C 143.812 58.329, 133.623 57.183, 132.558 58.905" stroke="none" fill="#4fd0fb" fill-rule="evenodd"/><path d="M 35.291 181.896 C 25.544 187.328, 19.953 191.058, 26.700 187.627 C 28.461 186.732, 30.571 186, 31.389 186 C 32.208 186, 36.318 189.037, 40.522 192.750 C 55.134 205.654, 71.555 215.091, 91.134 221.835 C 97.533 224.040, 104.058 226.059, 105.634 226.322 C 116.833 228.192, 122.068 229.002, 125.910 229.460 C 128.335 229.749, 130.516 230.183, 130.757 230.424 C 130.998 230.665, 129.014 231.997, 126.348 233.385 C 123.682 234.772, 121.879 235.928, 122.341 235.953 C 124.149 236.053, 140.816 226.768, 146.465 222.515 C 149.745 220.045, 152.670 217.904, 152.965 217.759 C 153.259 217.613, 154.625 216.185, 156 214.586 C 157.375 212.986, 157.862 212.048, 157.082 212.502 C 153.753 214.436, 127.873 214.435, 118.500 212.500 C 116.300 212.046, 113.600 211.590, 112.500 211.487 C 111.400 211.385, 109.648 210.935, 108.606 210.488 C 107.565 210.041, 105.765 209.591, 104.606 209.488 C 103.448 209.385, 101.748 208.973, 100.828 208.573 C 99.909 208.173, 98.559 207.724, 97.828 207.574 C 97.098 207.424, 95.748 206.974, 94.828 206.574 C 93.909 206.174, 92.491 205.748, 91.679 205.629 C 90.867 205.510, 89.594 204.908, 88.851 204.291 C 88.108 203.675, 87.154 203.151, 86.730 203.127 C 85.234 203.042, 73.069 196.921, 72.470 195.951 C 72.135 195.410, 71.503 195.189, 71.065 195.460 C 70.626 195.731, 69.462 195.063, 68.479 193.976 C 67.495 192.889, 66.163 192, 65.519 192 C 64.875 192, 63.305 190.889, 62.029 189.531 C 60.753 188.173, 59.396 187.255, 59.013 187.492 C 58.630 187.729, 56.824 186.382, 55 184.500 C 53.176 182.618, 51.293 181.319, 50.817 181.613 C 50.340 181.908, 50.074 181.590, 50.225 180.906 C 50.376 180.223, 49.490 179.137, 48.256 178.492 C 47.022 177.848, 46.309 177.024, 46.673 176.661 C 48.363 174.970, 44.667 176.670, 35.291 181.896 M 81.750 244.662 C 82.438 244.940, 83.563 244.940, 84.250 244.662 C 84.938 244.385, 84.375 244.158, 83 244.158 C 81.625 244.158, 81.063 244.385, 81.750 244.662" stroke="none" fill="#e4953c" fill-rule="evenodd"/><path d="M 40.750 6.747 C 48.037 6.918, 59.962 6.918, 67.250 6.747 C 74.537 6.577, 68.575 6.437, 54 6.437 C 39.425 6.437, 33.462 6.577, 40.750 6.747 M 86.264 7.718 C 87.784 7.947, 90.034 7.941, 91.264 7.704 C 92.494 7.467, 91.250 7.279, 88.500 7.286 C 85.750 7.294, 84.744 7.488, 86.264 7.718 M 101.356 9.931 C 110.028 12.004, 118.382 14.952, 117.652 15.681 C 117.394 15.939, 116.512 16.249, 115.693 16.369 C 114.873 16.489, 113.481 17.186, 112.601 17.916 C 111.720 18.647, 111 18.895, 111 18.467 C 111 18.040, 110.100 18.505, 109 19.500 C 107.900 20.495, 107 20.945, 107 20.500 C 107 20.055, 106.100 20.505, 105 21.500 C 103.900 22.495, 103 22.917, 103 22.436 C 103 21.956, 100.387 24.148, 97.194 27.308 C 94 30.468, 91.075 32.742, 90.694 32.360 C 90.312 31.979, 90 32.328, 90 33.137 C 90 33.946, 88.443 36.117, 86.539 37.962 C 84.635 39.807, 83.280 41.645, 83.528 42.045 C 83.775 42.446, 83.300 43.336, 82.471 44.024 C 80.623 45.558, 78.944 49.111, 75.160 59.500 C 72.567 66.616, 72.259 68.688, 72.373 78.250 C 72.443 84.163, 72.373 89, 72.217 89 C 72.061 89, 69.698 87.867, 66.967 86.483 C 64.235 85.099, 62 84.165, 62 84.408 C 62 84.884, 70.991 90.008, 77.500 93.242 C 79.700 94.335, 82.175 95.789, 83 96.474 C 83.825 97.158, 85.479 97.955, 86.675 98.246 C 88.817 98.766, 88.946 97.661, 87.111 94.500 C 86.792 93.950, 86.497 93.275, 86.455 93 C 86.413 92.725, 86.005 90.025, 85.548 87 C 84.643 81.010, 84.656 75.685, 85.587 70.698 C 85.915 68.939, 86.279 66.951, 86.396 66.279 C 86.513 65.607, 86.922 64.745, 87.304 64.362 C 87.687 63.980, 88 62.855, 88 61.864 C 88 59.977, 90.517 55.066, 94.246 49.678 C 97.469 45.022, 106.251 36, 107.561 36 C 108.182 36, 109.495 35.111, 110.479 34.024 C 111.462 32.937, 112.619 32.264, 113.048 32.530 C 113.478 32.795, 113.988 32.535, 114.183 31.952 C 114.377 31.368, 115.203 30.790, 116.018 30.667 C 116.833 30.544, 118.175 30.019, 119 29.500 C 119.825 28.981, 121.098 28.466, 121.828 28.355 C 122.559 28.245, 123.909 27.830, 124.828 27.433 C 125.748 27.037, 128.126 26.609, 130.114 26.482 C 134.522 26.201, 137.152 24.854, 136.205 23.363 C 133.968 19.845, 108.172 9.643, 99 8.649 C 94.029 8.110, 94.255 8.234, 101.356 9.931 M 25 63.430 C 25 63.705, 25.900 64.411, 27 65 C 28.100 65.589, 29 65.845, 29 65.570 C 29 65.295, 28.100 64.589, 27 64 C 25.900 63.411, 25 63.155, 25 63.430 M 37.500 70.710 C 38.050 71.272, 41.650 73.438, 45.500 75.522 C 49.350 77.607, 52.050 78.852, 51.500 78.290 C 50.950 77.728, 47.350 75.562, 43.500 73.478 C 39.650 71.393, 36.950 70.148, 37.500 70.710 M 53 79.449 C 53 79.724, 54.350 80.647, 56 81.500 C 57.650 82.353, 59 82.826, 59 82.551 C 59 82.276, 57.650 81.353, 56 80.500 C 54.350 79.647, 53 79.174, 53 79.449 M 29 87.430 C 29 87.705, 29.900 88.411, 31 89 C 32.100 89.589, 33 89.845, 33 89.570 C 33 89.295, 32.100 88.589, 31 88 C 29.900 87.411, 29 87.155, 29 87.430 M 34 90.449 C 34 90.724, 35.350 91.647, 37 92.500 C 38.650 93.353, 40 93.826, 40 93.551 C 40 93.276, 38.650 92.353, 37 91.500 C 35.350 90.647, 34 90.174, 34 90.449 M 41 94.430 C 41 94.705, 41.900 95.411, 43 96 C 44.100 96.589, 45 96.845, 45 96.570 C 45 96.295, 44.100 95.589, 43 95 C 41.900 94.411, 41 94.155, 41 94.430 M 46.500 97.692 C 47.050 98.233, 54.475 102.856, 63 107.964 C 71.525 113.072, 79.932 118.320, 81.683 119.626 C 83.434 120.932, 85.268 122, 85.759 122 C 86.250 122, 87.655 123.069, 88.883 124.375 L 91.114 126.750 88.307 128.920 L 85.500 131.090 89.750 129.025 C 92.088 127.889, 94 126.558, 94 126.067 C 94 125.577, 90.287 123.043, 85.750 120.437 C 81.213 117.830, 77.350 115.316, 77.167 114.849 C 76.983 114.382, 76.375 114, 75.814 114 C 75.254 114, 68.654 110.331, 61.148 105.846 C 45.900 96.736, 45.048 96.261, 46.500 97.692 M 190.526 99.184 C 190.118 100.458, 189.818 101.794, 189.860 102.154 C 189.902 102.514, 189.275 103.356, 188.468 104.027 C 187.661 104.697, 187 105.795, 187 106.467 C 187 107.140, 186.111 108.495, 185.024 109.479 C 183.937 110.462, 183.240 111.580, 183.476 111.962 C 183.712 112.344, 181.213 115.321, 177.921 118.578 C 174.630 121.835, 171.838 124.311, 171.718 124.080 C 171.598 123.848, 169.475 124.953, 167 126.533 C 164.525 128.114, 161.902 129.506, 161.172 129.627 C 160.441 129.747, 159.091 130.174, 158.172 130.574 C 155.884 131.570, 155.057 131.795, 150.861 132.561 C 147.798 133.120, 146.234 132.647, 140.986 129.571 C 137.556 127.561, 134.592 126.075, 134.399 126.268 C 134.097 126.570, 144.867 132.919, 160.620 141.723 C 163.067 143.091, 164.942 143.825, 164.785 143.355 C 164.628 142.885, 164.842 142.397, 165.260 142.270 C 165.679 142.144, 167.362 141.347, 169 140.500 C 170.638 139.653, 172.173 139.081, 172.409 139.230 C 172.645 139.378, 173.921 138.483, 175.244 137.241 C 176.566 135.998, 177.840 135.173, 178.074 135.406 C 178.308 135.639, 182.100 132.277, 186.500 127.934 L 194.500 120.038 195.213 123.269 C 196.137 127.457, 195.285 139.423, 193.358 149.334 C 192.520 153.642, 192.033 157.366, 192.275 157.609 C 192.518 157.851, 193.506 154.101, 194.471 149.275 C 197.384 134.698, 197.168 114.494, 193.974 103 C 192.388 97.290, 191.461 96.265, 190.526 99.184 M 82.441 132.555 C 80.577 134.049, 80.589 134.067, 82.750 133.020 C 83.987 132.420, 85 131.720, 85 131.465 C 85 130.700, 84.481 130.921, 82.441 132.555 M 74.742 136.914 C 70.633 139.549, 70.063 140.476, 73.687 138.634 C 75.439 137.743, 77.153 136.561, 77.496 136.007 C 78.297 134.710, 78.058 134.789, 74.742 136.914 M 67.441 141.555 C 65.577 143.049, 65.589 143.067, 67.750 142.020 C 68.987 141.420, 70 140.720, 70 140.465 C 70 139.700, 69.481 139.921, 67.441 141.555 M 60.441 145.555 C 58.577 147.049, 58.589 147.067, 60.750 146.020 C 61.987 145.420, 63 144.720, 63 144.465 C 63 143.700, 62.481 143.921, 60.441 145.555" stroke="none" fill="#40acdf" fill-rule="evenodd"/></svg>