<?xml version="1.0" encoding="UTF-8"?>
<svg xmlns="http://www.w3.org/2000/svg" xmlns:xlink="http://www.w3.org/1999/xlink" width="1214px" height="90px" viewBox="0 0 1214 90" version="1.1">
<g id="surface1">
<path style=" stroke:none;fill-rule:nonzero;fill:rgb(0%,0%,0%);fill-opacity:1;" d="M 11.984375 16.414062 C 12.90625 19.179688 7.191406 56.617188 2.765625 76.90625 L 1.84375 81.148438 L 30.238281 81.148438 C 57.527344 81.148438 58.820312 80.964844 59.925781 77.273438 C 60.664062 75.246094 60.847656 73.03125 60.292969 72.664062 C 59.925781 72.109375 52.917969 71.742188 44.992188 71.742188 C 24.523438 71.558594 23.96875 71.1875 25.261719 63.074219 C 27.289062 50.53125 28.027344 49.980469 44.804688 49.425781 C 58.820312 48.871094 59.925781 48.503906 60.480469 44.816406 C 61.03125 40.941406 60.292969 40.757812 45.726562 40.203125 L 30.421875 39.652344 L 30.976562 33.195312 C 32.082031 22.867188 33.742188 22.132812 52.550781 22.132812 C 69.328125 22.132812 69.699219 22.132812 70.4375 17.519531 L 71.359375 12.910156 L 41.117188 12.910156 C 12.167969 12.910156 10.878906 13.09375 11.984375 16.414062 Z M 11.984375 16.414062 "/>
<path style=" stroke:none;fill-rule:nonzero;fill:rgb(0%,0%,0%);fill-opacity:1;" d="M 92.929688 15.675781 C 93.484375 17.152344 91.457031 31.90625 88.503906 48.320312 C 85.554688 64.917969 82.972656 78.933594 82.972656 79.671875 C 82.972656 80.59375 95.695312 81.148438 111.371094 81.148438 L 139.765625 81.148438 L 140.503906 76.535156 L 141.425781 71.925781 L 125.566406 71.925781 C 116.902344 71.925781 108.605469 71.1875 107.3125 70.265625 C 105.285156 69.160156 105.835938 63.8125 109.527344 42.234375 C 112.105469 27.664062 114.320312 15.121094 114.320312 14.386719 C 114.320312 13.648438 109.339844 12.910156 103.070312 12.910156 C 93.851562 12.910156 92.007812 13.464844 92.929688 15.675781 Z M 92.929688 15.675781 "/>
<path style=" stroke:none;fill-rule:nonzero;fill:rgb(0%,0%,0%);fill-opacity:1;" d="M 172.769531 17.890625 C 173.324219 20.839844 171.480469 34.671875 168.898438 48.6875 C 166.316406 62.890625 164.105469 75.984375 164.105469 77.828125 C 164.105469 80.964844 165.761719 81.148438 192.316406 80.777344 C 219.789062 80.226562 220.339844 80.226562 220.894531 75.984375 C 221.632812 71.558594 222.1875 71.742188 198.214844 71.1875 C 187.335938 71.003906 187.152344 71.003906 186.597656 65.285156 C 186.230469 62.335938 186.96875 57.539062 187.890625 54.773438 C 189.734375 49.980469 190.101562 49.796875 205.589844 49.796875 C 221.078125 49.796875 221.265625 49.796875 221.265625 45.183594 C 221.265625 40.574219 221.078125 40.574219 206.511719 40.574219 L 191.761719 40.574219 L 191.761719 33.566406 C 191.761719 23.238281 193.789062 22.132812 213.335938 22.132812 C 222.738281 22.132812 230.484375 21.394531 230.484375 20.472656 C 230.484375 19.550781 231.035156 17.519531 231.589844 15.859375 C 232.511719 13.277344 229.375 12.910156 202.457031 12.910156 L 172.03125 12.910156 Z M 172.769531 17.890625 "/>
<path style=" stroke:none;fill-rule:nonzero;fill:rgb(0%,0%,0%);fill-opacity:1;" d="M 253.53125 16.96875 C 254.085938 19.363281 252.425781 32.460938 250.027344 46.105469 L 245.234375 70.820312 L 250.210938 75.984375 L 255.191406 81.148438 L 285.0625 81.148438 C 318.433594 81.148438 315.667969 82.4375 318.066406 66.761719 L 319.355469 59.015625 L 309.03125 59.015625 C 299.445312 59.015625 298.707031 59.386719 298.707031 63.257812 C 298.707031 65.65625 297.785156 68.421875 296.492188 69.714844 C 294.097656 72.109375 271.417969 72.664062 267.914062 70.449219 C 265.332031 68.789062 272.15625 25.820312 275.472656 23.421875 C 276.578125 22.683594 283.769531 22.316406 291.332031 22.5 C 304.789062 23.054688 305.160156 23.238281 305.160156 27.664062 C 305.160156 31.90625 305.898438 32.273438 314.011719 32.828125 C 321.9375 33.382812 322.859375 33.011719 324.519531 28.402344 C 326.179688 23.976562 325.8125 22.683594 321.386719 18.074219 L 316.40625 12.910156 L 252.609375 12.910156 Z M 253.53125 16.96875 "/>
<path style=" stroke:none;fill-rule:nonzero;fill:rgb(0%,0%,0%);fill-opacity:1;" d="M 403.621094 16.414062 C 404.726562 18.257812 404.914062 20.285156 404.359375 21.023438 C 403.804688 21.578125 407.863281 22.132812 413.578125 22.132812 C 426.300781 22.132812 425.933594 20.285156 419.480469 55.144531 C 416.898438 68.789062 414.871094 80.226562 414.871094 80.59375 C 414.871094 80.777344 419.292969 81.148438 424.828125 81.148438 L 434.78125 81.148438 L 438.839844 58.464844 C 446.03125 18.628906 444.003906 23.054688 454.882812 22.5 C 463.179688 21.945312 464.285156 21.394531 465.207031 17.519531 L 465.945312 12.910156 L 433.859375 12.910156 C 403.070312 12.910156 401.960938 13.09375 403.621094 16.414062 Z M 403.621094 16.414062 "/>
<path style=" stroke:none;fill-rule:nonzero;fill:rgb(0%,0%,0%);fill-opacity:1;" d="M 486.410156 15.121094 C 487.703125 16.78125 486.59375 26.371094 482.90625 47.027344 C 479.957031 63.257812 477.5625 77.644531 477.5625 78.75 C 477.5625 80.410156 480.695312 81.148438 487.332031 81.148438 L 497.289062 81.148438 L 499.871094 65.839844 C 502.453125 50.902344 502.453125 50.71875 507.984375 50.71875 C 512.964844 50.71875 514.253906 52.007812 521.445312 66.023438 L 529.375 81.148438 L 538.410156 81.148438 C 543.570312 81.148438 547.628906 80.226562 547.628906 79.304688 C 547.628906 78.195312 544.675781 71.742188 541.175781 64.734375 C 537.671875 57.726562 535.457031 51.640625 536.011719 50.902344 C 536.75 50.347656 539.882812 49.796875 543.203125 49.796875 C 548.179688 49.796875 549.65625 48.871094 550.210938 45.554688 C 555.003906 22.867188 555.003906 23.421875 550.023438 17.890625 L 545.046875 12.910156 L 514.808594 12.910156 C 490.835938 12.910156 484.9375 13.464844 486.410156 15.121094 Z M 532.875 27.109375 C 532.875 39.652344 531.769531 40.574219 517.941406 40.574219 C 505.773438 40.574219 505.21875 40.390625 505.21875 36.148438 C 505.21875 33.566406 505.957031 29.507812 507.0625 26.925781 C 508.722656 22.5 509.644531 22.132812 520.890625 22.132812 C 532.691406 22.132812 532.875 22.132812 532.875 27.109375 Z M 532.875 27.109375 "/>
<path style=" stroke:none;fill-rule:nonzero;fill:rgb(0%,0%,0%);fill-opacity:1;" d="M 582.292969 15.675781 C 583.214844 17.519531 581.738281 29.324219 578.605469 46.660156 C 575.839844 62.152344 573.625 76.167969 573.441406 77.828125 C 573.441406 80.59375 575.101562 81.148438 583.214844 81.148438 L 593.171875 81.148438 L 595.753906 65.839844 L 598.332031 50.71875 L 613.824219 50.164062 L 629.3125 49.609375 L 628.203125 59.570312 C 627.46875 64.917969 626.359375 71.925781 625.808594 75.246094 L 624.699219 81.148438 L 644.984375 81.148438 L 647.933594 64.917969 C 655.863281 20.839844 655.863281 22.683594 650.882812 17.519531 C 646.644531 12.910156 646.457031 12.910156 613.636719 12.910156 C 584.503906 12.910156 580.816406 13.277344 582.292969 15.675781 Z M 633.921875 26.925781 C 634.289062 28.953125 633.550781 32.828125 632.628906 35.59375 C 630.785156 40.390625 630.234375 40.574219 615.667969 40.574219 L 600.546875 40.574219 L 601.835938 32.828125 C 602.574219 28.769531 603.496094 24.527344 604.050781 23.605469 C 604.601562 22.683594 611.425781 22.132812 619.167969 22.5 C 631.890625 23.054688 633.367188 23.421875 633.921875 26.925781 Z M 633.921875 26.925781 "/>
<path style=" stroke:none;fill-rule:nonzero;fill:rgb(0%,0%,0%);fill-opacity:1;" d="M 677.621094 16.414062 C 678.542969 19.179688 672.457031 59.015625 668.402344 76.90625 C 667.480469 80.964844 668.03125 81.148438 677.621094 81.148438 C 683.152344 81.148438 687.761719 80.964844 687.945312 80.59375 C 687.945312 80.410156 689.789062 69.898438 692.1875 57.171875 C 694.398438 44.445312 696.980469 34.117188 697.71875 34.117188 C 698.457031 34.117188 703.066406 44.445312 707.859375 57.171875 L 716.527344 80.226562 L 740.3125 80.226562 L 745.105469 53.484375 C 747.6875 38.730469 750.453125 23.605469 751.191406 19.734375 L 752.480469 12.910156 L 732.199219 12.910156 L 730.355469 22.5 C 729.25 27.847656 727.40625 37.992188 726.296875 45.183594 C 725.191406 52.191406 723.53125 58.832031 722.792969 59.570312 C 722.058594 60.492188 717.449219 50.347656 712.652344 37.070312 L 703.804688 12.910156 L 690.160156 12.910156 C 677.4375 12.910156 676.515625 13.09375 677.621094 16.414062 Z M 677.621094 16.414062 "/>
<path style=" stroke:none;fill-rule:nonzero;fill:rgb(0%,0%,0%);fill-opacity:1;" d="M 773.316406 16.230469 C 774.054688 18.074219 773.132812 26.1875 771.65625 34.304688 C 770.183594 42.234375 768.890625 49.058594 768.890625 49.242188 C 768.890625 49.425781 780.324219 49.980469 794.335938 50.164062 L 819.597656 50.71875 L 819.042969 59.015625 C 818.675781 63.628906 817.570312 68.054688 816.648438 69.160156 C 815.542969 70.082031 803.742188 71.1875 790.09375 71.558594 C 776.449219 71.925781 765.203125 72.847656 765.203125 73.769531 C 765.203125 74.691406 764.648438 76.535156 764.097656 78.195312 C 763.175781 80.777344 766.863281 81.148438 799.128906 81.148438 C 840.25 81.148438 835.085938 83.546875 838.957031 61.96875 C 840.800781 51.269531 840.617188 50.71875 835.824219 45.738281 C 831.03125 40.757812 830.292969 40.574219 811.851562 40.574219 C 790.832031 40.574219 790.28125 40.203125 792.492188 29.507812 C 793.785156 23.605469 794.519531 23.054688 800.972656 22.5 C 810.929688 21.578125 817.386719 23.421875 816.09375 26.742188 C 815.355469 28.953125 817.015625 29.507812 824.945312 29.507812 C 837.296875 29.507812 839.695312 25.820312 832.136719 18.074219 L 827.15625 12.910156 L 799.683594 12.910156 C 774.054688 12.910156 772.394531 13.09375 773.316406 16.230469 Z M 773.316406 16.230469 "/>
<path style=" stroke:none;fill-rule:nonzero;fill:rgb(0%,0%,0%);fill-opacity:1;" d="M 868.277344 15.308594 C 869.75 17.152344 868.828125 25.449219 864.773438 48.136719 C 861.636719 64.734375 859.242188 78.933594 859.242188 79.671875 C 859.242188 80.410156 863.664062 81.148438 869.011719 81.148438 L 878.96875 81.148438 L 881.550781 65.839844 L 884.132812 50.71875 L 930.96875 49.609375 L 932.8125 40.019531 C 935.945312 23.605469 935.945312 22.683594 931.335938 17.703125 C 926.910156 12.910156 926.726562 12.910156 896.488281 12.910156 C 871.410156 12.910156 866.433594 13.277344 868.277344 15.308594 Z M 915.109375 27.664062 C 913.820312 40.574219 913.632812 40.574219 899.804688 40.574219 C 887.453125 40.574219 886.898438 40.390625 886.898438 36.148438 C 886.898438 33.566406 887.636719 29.507812 888.742188 26.742188 C 890.402344 22.132812 891.140625 21.945312 902.941406 22.5 C 915.109375 23.054688 915.476562 23.238281 915.109375 27.664062 Z M 915.109375 27.664062 "/>
<path style=" stroke:none;fill-rule:nonzero;fill:rgb(0%,0%,0%);fill-opacity:1;" d="M 959.546875 15.675781 C 960.101562 17.152344 958.441406 30.0625 955.859375 44.445312 L 951.25 70.636719 L 956.226562 75.800781 L 961.390625 81.148438 L 1021.132812 81.148438 L 1024.082031 64.917969 C 1032.011719 20.839844 1032.011719 22.683594 1027.03125 17.519531 C 1022.792969 12.910156 1022.605469 12.910156 990.523438 12.910156 C 962.867188 12.910156 958.625 13.277344 959.546875 15.675781 Z M 1009.699219 24.898438 C 1010.992188 28.03125 1005.273438 63.996094 1002.691406 68.789062 C 1001.035156 71.925781 999.191406 72.109375 987.203125 71.371094 C 979.644531 71.003906 973.007812 70.082031 972.453125 69.527344 C 971.347656 68.605469 978.539062 26.371094 980.199219 23.605469 C 980.75 22.867188 987.390625 22.132812 994.949219 22.132812 C 1005.273438 22.132812 1008.960938 22.867188 1009.699219 24.898438 Z M 1009.699219 24.898438 "/>
<path style=" stroke:none;fill-rule:nonzero;fill:rgb(0%,0%,0%);fill-opacity:1;" d="M 1054.320312 15.675781 C 1055.242188 17.519531 1054.136719 27.480469 1051.738281 41.128906 C 1049.34375 53.484375 1046.945312 67.683594 1046.394531 72.480469 L 1045.101562 81.332031 L 1054.875 80.777344 L 1064.648438 80.226562 L 1067.042969 66.578125 C 1069.625 51.269531 1070.730469 49.242188 1077 50.164062 C 1080.503906 50.53125 1083.085938 54.035156 1088.800781 65.472656 L 1096.175781 80.226562 L 1105.949219 80.777344 C 1111.113281 81.148438 1115.539062 80.777344 1115.539062 80.226562 C 1115.539062 79.671875 1112.585938 73.402344 1109.085938 66.210938 C 1105.394531 59.199219 1103 52.5625 1103.550781 51.640625 C 1104.289062 50.53125 1107.425781 49.796875 1110.929688 49.796875 C 1117.011719 49.796875 1117.011719 49.796875 1119.042969 38.175781 C 1121.808594 22.316406 1121.621094 21.578125 1116.828125 16.96875 C 1112.773438 13.09375 1110.742188 12.910156 1082.53125 12.910156 C 1056.351562 12.910156 1052.847656 13.277344 1054.320312 15.675781 Z M 1100.417969 26.925781 C 1100.785156 28.953125 1100.050781 32.828125 1099.128906 35.59375 C 1097.285156 40.203125 1096.546875 40.574219 1085.113281 40.574219 L 1073.128906 40.574219 L 1073.128906 33.566406 C 1073.128906 23.789062 1075.710938 21.945312 1088.800781 22.5 C 1098.390625 23.054688 1099.863281 23.605469 1100.417969 26.925781 Z M 1100.417969 26.925781 "/>
<path style=" stroke:none;fill-rule:nonzero;fill:rgb(0%,0%,0%);fill-opacity:1;" d="M 1150.203125 17.519531 C 1150.941406 21.761719 1151.863281 22.132812 1159.976562 22.132812 C 1164.769531 22.132812 1169.378906 22.867188 1169.933594 23.976562 C 1170.484375 24.898438 1169.007812 37.621094 1166.242188 52.191406 C 1163.664062 66.761719 1161.632812 79.304688 1161.632812 79.855469 C 1161.632812 80.59375 1166.058594 81.148438 1171.40625 81.148438 L 1181.363281 81.148438 L 1186.34375 53.113281 C 1189.109375 37.621094 1191.875 24.34375 1192.242188 23.605469 C 1192.796875 22.683594 1197.222656 22.132812 1202.382812 22.132812 C 1210.867188 22.132812 1211.417969 21.761719 1211.417969 17.519531 L 1211.417969 12.910156 L 1149.28125 12.910156 Z M 1150.203125 17.519531 "/>
<path style=" stroke:none;fill-rule:nonzero;fill:rgb(0%,0%,0%);fill-opacity:1;" d="M 340.5625 41.863281 C 339.824219 42.417969 339.269531 44.632812 339.269531 46.476562 C 339.269531 49.425781 341.113281 49.796875 357.710938 49.796875 L 376.148438 49.796875 L 376.148438 45.183594 C 376.148438 40.574219 376.148438 40.574219 359 40.574219 C 349.414062 40.574219 341.113281 41.128906 340.5625 41.863281 Z M 340.5625 41.863281 "/>
</g>
</svg>
