<?xml version="1.0" standalone="no"?>
<!DOCTYPE svg PUBLIC "-//W3C//DTD SVG 20010904//EN"
 "http://www.w3.org/TR/2001/REC-SVG-20010904/DTD/svg10.dtd">
<svg version="1.0" xmlns="http://www.w3.org/2000/svg"
 width="472.000000pt" height="61.000000pt" viewBox="0 0 472.000000 61.000000"
 preserveAspectRatio="xMidYMid meet">

<g transform="translate(0.000000,61.000000) scale(0.100000,-0.100000)"
fill="#000000" stroke="none">
<path d="M4394 533 c-12 -2 -36 -16 -54 -31 -27 -23 -33 -36 -37 -78 -7 -67
22 -102 109 -134 90 -32 108 -45 108 -80 0 -53 -73 -69 -114 -25 -18 19 -33
25 -65 25 -22 0 -41 -5 -41 -10 0 -30 34 -70 76 -90 126 -61 270 31 231 148
-13 38 -50 62 -160 106 -59 23 -73 58 -37 88 28 23 66 17 92 -12 12 -15 29
-20 63 -20 43 0 46 1 40 23 -22 72 -111 110 -211 90z"/>
<path d="M130 316 l0 -216 63 -2 c106 -2 160 3 202 21 148 65 163 280 27 376
-42 29 -48 30 -168 34 l-124 3 0 -216z m254 105 c54 -51 59 -156 9 -205 -29
-29 -89 -49 -136 -44 l-32 3 -3 139 -3 138 70 -4 c57 -3 75 -8 95 -27z"/>
<path d="M670 316 l0 -214 103 -4 c141 -5 147 -3 147 38 l0 34 -80 0 -80 0 0
55 0 55 70 0 70 0 0 35 0 35 -70 0 -70 0 0 55 0 55 80 0 80 0 0 35 0 35 -125
0 -125 0 0 -214z"/>
<path d="M1080 316 l0 -214 39 -4 c21 -2 75 -2 120 0 l81 4 0 29 c0 28 0 28
-72 31 l-73 3 -3 183 -2 182 -45 0 -45 0 0 -214z"/>
<path d="M1458 423 c-2 -59 -2 -157 0 -218 l3 -110 45 3 44 4 0 214 0 214 -44
0 -45 0 -3 -107z"/>
<path d="M1727 403 c25 -71 59 -167 75 -215 l30 -86 64 -4 63 -3 76 213 c41
117 75 215 75 218 0 3 -21 4 -47 2 l-46 -3 -55 -162 c-29 -90 -59 -163 -66
-163 -6 0 -36 73 -66 165 l-54 165 -48 0 -47 0 46 -127z"/>
<path d="M2250 316 l0 -214 53 -4 c29 -1 88 -2 130 0 l78 4 -3 31 -3 32 -82 3
-83 3 0 54 0 55 75 0 75 0 0 35 0 35 -75 0 -75 0 0 55 0 55 85 0 85 0 0 35 0
35 -130 0 -130 0 0 -214z"/>
<path d="M2660 315 l0 -215 45 0 45 0 0 74 c0 54 4 77 16 86 20 17 31 6 82
-85 36 -64 43 -71 78 -76 65 -11 66 -4 18 78 -24 41 -44 78 -44 83 0 5 15 18
33 29 84 52 76 180 -13 226 -21 11 -62 15 -145 15 l-115 0 0 -215z m218 129
c15 -10 22 -25 22 -49 0 -51 -22 -66 -89 -63 l-56 3 -3 39 c-2 22 -1 50 2 63
6 20 12 23 54 23 27 0 57 -7 70 -16z"/>
<path d="M3196 386 c72 -139 74 -145 74 -215 l0 -71 45 0 45 0 0 69 c0 65 3
74 76 215 l75 146 -49 0 -49 0 -41 -90 c-23 -49 -48 -90 -55 -90 -7 0 -32 41
-54 90 l-41 90 -50 0 -50 0 74 -144z"/>
<path d="M3650 315 l0 -215 45 0 45 0 0 125 c0 94 3 125 13 125 7 0 33 -56 60
-128 l48 -127 37 3 38 4 44 124 c25 68 51 124 58 124 9 0 12 -32 12 -125 l0
-125 45 0 45 0 0 215 0 215 -54 0 -54 0 -62 -155 c-34 -85 -66 -155 -71 -155
-11 0 -19 18 -88 185 l-50 120 -55 3 -56 3 0 -216z"/>
</g>
</svg>
