<svg xmlns="http://www.w3.org/2000/svg" width="366" height="195" viewBox="0 0 366 195" version="1.1"><path d="M 121 17.706 C 117.528 18.975, 110.923 27.257, 112.292 28.625 C 112.533 28.867, 113.278 27.744, 113.946 26.131 C 114.614 24.518, 116.285 22.141, 117.660 20.849 C 120.079 18.575, 120.697 18.500, 137.079 18.500 C 146.384 18.500, 153.999 18.163, 153.999 17.750 C 154 16.901, 123.314 16.860, 121 17.706 M 173.359 18.923 C 171.632 19.976, 169.913 21.332, 169.540 21.936 C 169.166 22.540, 170.530 21.901, 172.570 20.517 L 176.279 18 256.707 18 L 337.135 18 336.448 20.165 C 334.549 26.148, 325.759 44.628, 323.840 46.670 C 322.635 47.953, 320.040 49.450, 318.074 49.996 C 313.087 51.381, 158.346 51.361, 157.658 49.975 C 157.379 49.411, 157.266 49.524, 157.408 50.225 C 157.745 51.886, 312.010 52.613, 318.068 50.982 C 324.035 49.375, 327.031 45.425, 332.750 31.623 C 335.638 24.654, 338 18.514, 338 17.976 C 338 17.349, 309.122 17.001, 257.250 17.004 C 179.455 17.007, 176.385 17.078, 173.359 18.923 M 150.624 23.539 C 149.659 26.053, 149.943 26.702, 151.122 24.675 C 151.706 23.671, 151.973 22.639, 151.715 22.382 C 151.458 22.124, 150.966 22.645, 150.624 23.539 M 148.162 29.543 C 146.487 33.220, 146.807 34.005, 148.618 30.662 C 149.464 29.100, 149.969 27.636, 149.741 27.407 C 149.512 27.179, 148.802 28.140, 148.162 29.543 M 165.624 29.539 C 164.659 32.053, 164.943 32.702, 166.122 30.675 C 166.706 29.671, 166.973 28.639, 166.715 28.382 C 166.458 28.124, 165.966 28.645, 165.624 29.539 M 110.162 32.543 C 108.487 36.220, 108.807 37.005, 110.618 33.662 C 111.464 32.100, 111.969 30.636, 111.741 30.407 C 111.512 30.179, 110.802 31.140, 110.162 32.543 M 162.624 36.539 C 161.659 39.053, 161.943 39.702, 163.122 37.675 C 163.706 36.671, 163.973 35.639, 163.715 35.382 C 163.458 35.124, 162.966 35.645, 162.624 36.539 M 144.624 37.539 C 143.659 40.053, 143.943 40.702, 145.122 38.675 C 145.706 37.671, 145.973 36.639, 145.715 36.382 C 145.458 36.124, 144.966 36.645, 144.624 37.539 M 107.162 39.543 C 105.487 43.220, 105.807 44.005, 107.618 40.662 C 108.464 39.100, 108.969 37.636, 108.741 37.407 C 108.512 37.179, 107.802 38.140, 107.162 39.543 M 159.624 43.539 C 158.659 46.053, 158.943 46.702, 160.122 44.675 C 160.706 43.671, 160.973 42.639, 160.715 42.382 C 160.458 42.124, 159.966 42.645, 159.624 43.539 M 104.038 46.908 C 103.361 48.542, 103.102 50.356, 103.463 50.940 C 104.275 52.254, 127.840 52.337, 133.407 51.046 C 135.557 50.547, 138.482 48.883, 139.907 47.348 L 142.500 44.556 139.847 46.862 C 136.115 50.104, 131.372 50.949, 116.750 50.976 C 103.565 51.001, 102.971 50.791, 105.081 46.849 C 105.676 45.738, 105.961 44.628, 105.716 44.382 C 105.470 44.137, 104.715 45.273, 104.038 46.908 M 48.020 84.752 C 44.682 86.428, 39.982 92.093, 40.016 94.398 C 40.025 95.004, 41.045 93.700, 42.282 91.500 C 45.937 84.997, 49.109 84.003, 66.219 84.002 C 79.785 84, 80.893 84.137, 80.374 85.750 C 79.915 87.177, 80.001 87.232, 80.840 86.048 C 81.405 85.249, 81.646 84.237, 81.375 83.798 C 81.104 83.359, 74.271 83.001, 66.191 83.002 C 54.200 83.003, 50.860 83.324, 48.020 84.752 M 102.051 84.833 C 100.172 85.841, 97.949 87.753, 97.113 89.083 C 95.756 91.238, 95.880 91.201, 98.257 88.740 C 99.724 87.222, 102.095 85.534, 103.527 84.990 C 107.627 83.431, 175.702 83.674, 176.338 85.250 C 176.639 85.997, 176.874 85.795, 176.921 84.750 C 176.995 83.114, 174.660 83, 141.234 83 C 108.466 83, 105.182 83.154, 102.051 84.833 M 197.500 84.842 C 195.850 85.850, 193.839 87.536, 193.030 88.588 C 191.814 90.170, 191.986 90.134, 194.030 88.375 C 199.047 84.059, 199.601 84, 235.434 84 C 254.445 84, 270 84.169, 270 84.376 C 270 84.582, 268.856 87.338, 267.458 90.500 C 266.059 93.662, 265.090 96.423, 265.303 96.636 C 265.707 97.041, 271.008 85.058, 271.003 83.750 C 271.001 83.338, 255.137 83.002, 235.750 83.004 C 203.323 83.007, 200.260 83.154, 197.500 84.842 M 78.624 89.539 C 77.659 92.053, 77.943 92.702, 79.122 90.675 C 79.706 89.671, 79.973 88.639, 79.715 88.382 C 79.458 88.124, 78.966 88.645, 78.624 89.539 M 173.624 90.539 C 172.659 93.053, 172.943 93.702, 174.122 91.675 C 174.706 90.671, 174.973 89.639, 174.715 89.382 C 174.458 89.124, 173.966 89.645, 173.624 90.539 M 92.143 99.143 C 90.402 103.085, 89.138 106.471, 89.334 106.668 C 89.531 106.864, 91.116 103.799, 92.857 99.857 C 94.598 95.915, 95.862 92.529, 95.666 92.332 C 95.469 92.136, 93.884 95.201, 92.143 99.143 M 189.162 95.543 C 187.487 99.220, 187.807 100.005, 189.618 96.662 C 190.464 95.100, 190.969 93.636, 190.741 93.407 C 190.512 93.179, 189.802 94.140, 189.162 95.543 M 75.624 96.539 C 74.659 99.053, 74.943 99.702, 76.122 97.675 C 76.706 96.671, 76.973 95.639, 76.715 95.382 C 76.458 95.124, 75.966 95.645, 75.624 96.539 M 35.160 105.745 C 32.870 111.110, 30.997 116.063, 30.998 116.750 C 31 117.705, 34.599 117.948, 46.250 117.779 L 61.500 117.558 46.750 117.252 C 38.638 117.084, 32 116.586, 32 116.146 C 32 115.705, 33.816 111.158, 36.035 106.041 C 38.255 100.924, 39.902 96.569, 39.697 96.364 C 39.492 96.158, 37.450 100.380, 35.160 105.745 M 261.572 104.225 C 260.081 107.676, 257.655 111.848, 256.181 113.496 L 253.500 116.493 256.378 113.996 C 258.981 111.738, 265.586 99.252, 264.664 98.331 C 264.455 98.121, 263.063 100.774, 261.572 104.225 M 186.624 101.539 C 185.659 104.053, 185.943 104.702, 187.122 102.675 C 187.706 101.671, 187.973 100.639, 187.715 100.382 C 187.458 100.124, 186.966 100.645, 186.624 101.539 M 72.624 103.539 C 71.659 106.053, 71.943 106.702, 73.122 104.675 C 73.706 103.671, 73.973 102.639, 73.715 102.382 C 73.458 102.124, 72.966 102.645, 72.624 103.539 M 183.624 108.539 C 182.659 111.053, 182.943 111.702, 184.122 109.675 C 184.706 108.671, 184.973 107.639, 184.715 107.382 C 184.458 107.124, 183.966 107.645, 183.624 108.539 M 87.624 109.539 C 86.659 112.053, 86.943 112.702, 88.122 110.675 C 88.706 109.671, 88.973 108.639, 88.715 108.382 C 88.458 108.124, 87.966 108.645, 87.624 109.539 M 165.624 109.539 C 164.659 112.053, 164.943 112.702, 166.122 110.675 C 166.706 109.671, 166.973 108.639, 166.715 108.382 C 166.458 108.124, 165.966 108.645, 165.624 109.539 M 69.184 111.077 C 68.501 112.170, 66.493 113.948, 64.722 115.028 C 62.950 116.109, 62.069 116.994, 62.765 116.996 C 64.323 117.001, 71.699 110.366, 70.959 109.625 C 70.665 109.331, 69.866 109.985, 69.184 111.077 M 85.607 114.582 C 85.273 115.452, 85 116.560, 85 117.045 C 85 117.529, 94.900 118.055, 107.001 118.213 C 119.101 118.371, 129.001 118.162, 129.001 117.750 C 129 117.338, 119.295 117, 107.433 117 C 86.320 117, 85.879 116.958, 86.500 115 C 87.249 112.639, 86.489 112.283, 85.607 114.582 M 180.624 115.538 C 180.299 116.384, 180.592 117.290, 181.273 117.551 C 181.955 117.813, 197.810 117.902, 216.507 117.750 L 250.500 117.472 215.781 117.236 C 185.395 117.029, 181.135 116.813, 181.638 115.500 C 181.955 114.675, 181.989 114, 181.714 114 C 181.439 114, 180.948 114.692, 180.624 115.538 M 162.624 116.539 C 161.659 119.053, 161.943 119.702, 163.122 117.675 C 163.706 116.671, 163.973 115.639, 163.715 115.382 C 163.458 115.124, 162.966 115.645, 162.624 116.539 M 125.624 123.539 C 124.659 126.053, 124.943 126.702, 126.122 124.675 C 126.706 123.671, 126.973 122.639, 126.715 122.382 C 126.458 122.124, 125.966 122.645, 125.624 123.539 M 159.624 123.539 C 158.659 126.053, 158.943 126.702, 160.122 124.675 C 160.706 123.671, 160.973 122.639, 160.715 122.382 C 160.458 122.124, 159.966 122.645, 159.624 123.539 M 157.162 129.543 C 155.487 133.220, 155.807 134.005, 157.618 130.662 C 158.464 129.100, 158.969 127.636, 158.741 127.407 C 158.512 127.179, 157.802 128.140, 157.162 129.543 M 122.624 130.539 C 121.659 133.053, 121.943 133.702, 123.122 131.675 C 123.706 130.671, 123.973 129.639, 123.715 129.382 C 123.458 129.124, 122.966 129.645, 122.624 130.539 M 119.624 137.539 C 118.659 140.053, 118.943 140.702, 120.122 138.675 C 120.706 137.671, 120.973 136.639, 120.715 136.382 C 120.458 136.124, 119.966 136.645, 119.624 137.539 M 114.624 149.539 C 113.659 152.053, 113.943 152.702, 115.122 150.675 C 115.706 149.671, 115.973 148.639, 115.715 148.382 C 115.458 148.124, 114.966 148.645, 114.624 149.539 M 149 149.250 C 149 149.662, 178.700 150, 215 150 C 251.300 150, 281 150.185, 281 150.411 C 281 151.402, 270.686 174.838, 268.858 178 C 267.419 180.491, 267.303 181.045, 268.458 179.924 C 270.850 177.601, 282.252 150.852, 281.269 149.869 C 280.227 148.827, 149 148.213, 149 149.250 M 111.624 156.539 C 110.659 159.053, 110.943 159.702, 112.122 157.675 C 112.706 156.671, 112.973 155.639, 112.715 155.382 C 112.458 155.124, 111.966 155.645, 111.624 156.539 M 108.624 163.539 C 107.659 166.053, 107.943 166.702, 109.122 164.675 C 109.706 163.671, 109.973 162.639, 109.715 162.382 C 109.458 162.124, 108.966 162.645, 108.624 163.539 M 105.624 170.539 C 104.659 173.053, 104.943 173.702, 106.122 171.675 C 106.706 170.671, 106.973 169.639, 106.715 169.382 C 106.458 169.124, 105.966 169.645, 105.624 170.539 M 102.624 177.539 C 101.659 180.053, 101.943 180.702, 103.122 178.675 C 103.706 177.671, 103.973 176.639, 103.715 176.382 C 103.458 176.124, 102.966 176.645, 102.624 177.539 M 101.015 182.250 C 101.001 183.904, 105.414 183.987, 181.750 183.756 L 262.500 183.512 182.555 183.250 C 120.129 183.045, 102.437 182.715, 101.821 181.744 C 101.260 180.861, 101.026 181.008, 101.015 182.250" stroke="none" fill="#95875a" fill-rule="evenodd"/><path d="M 120.500 18.945 C 119.400 19.396, 117.704 20.649, 116.731 21.731 C 115.020 23.635, 104 48.156, 104 50.059 C 104 51.267, 128.191 51.256, 133.407 50.046 C 139.144 48.715, 141.276 45.906, 147.440 31.556 C 150.498 24.437, 153 18.474, 153 18.306 C 153 17.595, 122.324 18.199, 120.500 18.945 M 172.958 20.250 C 170.247 22.077, 168.528 25.023, 163.810 35.930 C 160.614 43.316, 158 49.729, 158 50.180 C 158 51.387, 313.710 51.208, 318.074 49.996 C 320.040 49.450, 322.635 47.953, 323.840 46.670 C 325.759 44.628, 334.549 26.148, 336.448 20.165 L 337.135 18 256.715 18 L 176.296 18 172.958 20.250 M 48.500 85.386 C 46.849 86.105, 44.925 87.385, 44.224 88.230 C 42.922 89.799, 32 114.810, 32 116.222 C 32 116.650, 38.547 117, 46.550 117 C 61.632 117, 64.541 116.374, 68.185 112.348 C 69.722 110.650, 74.297 100.738, 79.077 88.750 L 80.971 84 66.235 84.039 C 56.377 84.065, 50.507 84.511, 48.500 85.386 M 102.299 85.624 C 100.538 86.492, 98.483 88.170, 97.733 89.351 C 96.243 91.697, 86 115.255, 86 116.334 C 86 116.700, 95.675 117, 107.500 117 C 119.325 117, 129 117.172, 129 117.383 C 129 117.593, 122.925 132.054, 115.500 149.518 C 108.075 166.982, 102 181.660, 102 182.136 C 102 182.614, 137.719 183, 182.050 183 C 270.195 183, 266.254 183.277, 269.580 176.845 C 271.337 173.448, 281 151.080, 281 150.411 C 281 150.185, 251.300 150, 215 150 C 178.700 150, 149 149.807, 149 149.570 C 149 149.334, 155.075 134.844, 162.500 117.371 C 169.925 99.898, 176 85.241, 176 84.801 C 176 84.360, 160.137 84.010, 140.750 84.023 C 110.687 84.042, 105.029 84.278, 102.299 85.624 M 197.500 85.842 C 192.805 88.712, 193.279 87.840, 182.330 113.786 L 180.943 117.072 216.953 116.786 L 252.964 116.500 255.935 113.500 C 257.667 111.751, 261.220 105.120, 264.453 97.601 C 267.504 90.506, 270 84.543, 270 84.351 C 270 84.158, 254.363 84.002, 235.250 84.004 C 203.308 84.007, 200.258 84.156, 197.500 85.842" stroke="none" fill="#1e2d5c" fill-rule="evenodd"/></svg>